<?xml version="1.0" encoding="UTF-8" standalone="no"?><!DOCTYPE svg PUBLIC "-//W3C//DTD SVG 1.1//EN" "http://www.w3.org/Graphics/SVG/1.1/DTD/svg11.dtd"><svg width="100%" height="100%" viewBox="0 0 802 272" version="1.1" xmlns="http://www.w3.org/2000/svg" xmlns:xlink="http://www.w3.org/1999/xlink" xml:space="preserve" xmlns:serif="http://www.serif.com/" style="fill-rule:evenodd;clip-rule:evenodd;stroke-linejoin:round;stroke-miterlimit:2;"><g transform="matrix(5.55556,0,0,5.55556,-307.83,-38.3108)"><g transform="matrix(0.166872,0,0,0.166872,-57.4039,-22.4578)"><g transform="matrix(1.23605,0,-0.234947,1.5888,475.3,-470.863)"><g id="Logo_Font" transform="matrix(254.566,0,0,254.566,248.432,588.331)"><path d="M0.568,-0.029c-0.051,0.027 -0.116,0.041 -0.193,0.041c-0.1,0 -0.179,-0.032 -0.239,-0.096c-0.06,-0.065 -0.09,-0.149 -0.09,-0.253c-0,-0.112 0.034,-0.202 0.101,-0.271c0.067,-0.069 0.153,-0.104 0.256,-0.104c0.067,0 0.122,0.01 0.165,0.029l-0,0.087c-0.05,-0.028 -0.105,-0.042 -0.166,-0.042c-0.08,0 -0.145,0.027 -0.195,0.081c-0.05,0.054 -0.075,0.125 -0.075,0.215c-0,0.085 0.023,0.153 0.07,0.204c0.047,0.051 0.108,0.076 0.184,0.076c0.07,-0 0.131,-0.016 0.182,-0.047l-0,0.08Z" style="fill:#fff;fill-rule:nonzero;"/></g><g transform="matrix(254.566,0,0,254.566,409.862,588.331)"><path d="M0.059,-0.028l-0,-0.097c0.011,0.01 0.024,0.019 0.04,0.026c0.015,0.008 0.032,0.015 0.049,0.02c0.017,0.006 0.034,0.01 0.051,0.013c0.017,0.003 0.033,0.004 0.048,0.004c0.051,0 0.088,-0.009 0.113,-0.028c0.025,-0.019 0.037,-0.046 0.037,-0.081c0,-0.019 -0.004,-0.035 -0.012,-0.049c-0.008,-0.014 -0.02,-0.027 -0.034,-0.039c-0.015,-0.011 -0.032,-0.022 -0.052,-0.033c-0.02,-0.01 -0.042,-0.021 -0.065,-0.033c-0.025,-0.013 -0.047,-0.025 -0.068,-0.038c-0.022,-0.012 -0.04,-0.026 -0.056,-0.042c-0.015,-0.015 -0.028,-0.032 -0.037,-0.052c-0.008,-0.019 -0.013,-0.042 -0.013,-0.068c0,-0.032 0.007,-0.06 0.021,-0.083c0.014,-0.024 0.032,-0.043 0.055,-0.059c0.023,-0.015 0.049,-0.026 0.078,-0.034c0.029,-0.007 0.059,-0.011 0.089,-0.011c0.069,0 0.12,0.008 0.151,0.025l0,0.092c-0.041,-0.028 -0.094,-0.043 -0.159,-0.043c-0.018,0 -0.036,0.002 -0.054,0.006c-0.018,0.004 -0.034,0.01 -0.048,0.018c-0.014,0.009 -0.025,0.02 -0.034,0.033c-0.009,0.013 -0.013,0.03 -0.013,0.049c0,0.018 0.003,0.033 0.01,0.046c0.007,0.013 0.017,0.025 0.03,0.036c0.013,0.011 0.028,0.021 0.047,0.031c0.019,0.01 0.04,0.021 0.065,0.033c0.025,0.013 0.049,0.026 0.071,0.039c0.023,0.014 0.042,0.029 0.059,0.046c0.017,0.016 0.031,0.035 0.041,0.055c0.009,0.02 0.014,0.043 0.014,0.069c0,0.035 -0.006,0.064 -0.02,0.088c-0.013,0.024 -0.032,0.043 -0.055,0.058c-0.023,0.015 -0.049,0.026 -0.079,0.033c-0.03,0.006 -0.061,0.01 -0.095,0.01c-0.011,0 -0.024,-0.001 -0.041,-0.003c-0.016,-0.002 -0.033,-0.004 -0.049,-0.008c-0.017,-0.003 -0.033,-0.007 -0.049,-0.012c-0.015,-0.006 -0.027,-0.011 -0.036,-0.017Z" style="fill:#fff;fill-rule:nonzero;"/></g><g transform="matrix(254.566,0,0,254.566,548.918,588.331)"><path d="M0.455,-0l-0.363,-0l0,-0.7l0.082,0l0,0.626l0.281,0l0,0.074Z" style="fill:#fff;fill-rule:nonzero;"/></g><g transform="matrix(254.566,0,0,254.566,672.562,588.331)"><path d="M0.455,-0l-0.363,-0l0,-0.7l0.082,0l0,0.626l0.281,0l0,0.074Z" style="fill:#fff;fill-rule:nonzero;"/></g><g transform="matrix(254.566,0,0,254.566,796.205,588.331)"><path d="M0.568,-0.029c-0.051,0.027 -0.116,0.041 -0.193,0.041c-0.1,0 -0.179,-0.032 -0.239,-0.096c-0.06,-0.065 -0.09,-0.149 -0.09,-0.253c-0,-0.112 0.034,-0.202 0.101,-0.271c0.067,-0.069 0.153,-0.104 0.256,-0.104c0.067,0 0.122,0.01 0.165,0.029l-0,0.087c-0.05,-0.028 -0.105,-0.042 -0.166,-0.042c-0.08,0 -0.145,0.027 -0.195,0.081c-0.05,0.054 -0.075,0.125 -0.075,0.215c-0,0.085 0.023,0.153 0.07,0.204c0.047,0.051 0.108,0.076 0.184,0.076c0.07,-0 0.131,-0.016 0.182,-0.047l-0,0.08Z" style="fill:#fff;fill-rule:nonzero;"/></g></g></g></g></svg>