<?xml version="1.0" encoding="UTF-8" standalone="no"?><!DOCTYPE svg PUBLIC "-//W3C//DTD SVG 1.1//EN" "http://www.w3.org/Graphics/SVG/1.1/DTD/svg11.dtd"><svg width="100%" height="100%" viewBox="0 0 292 354" version="1.1" xmlns="http://www.w3.org/2000/svg" xmlns:xlink="http://www.w3.org/1999/xlink" xml:space="preserve" xmlns:serif="http://www.serif.com/" style="fill-rule:evenodd;clip-rule:evenodd;stroke-linejoin:round;stroke-miterlimit:2;"><g transform="matrix(5.55556,0,0,5.55556,-0.00655644,0.0030832)"><g transform="matrix(0.166872,0,0,0.166872,-57.4039,-22.4578)"><g id="Logo_Icon" transform="matrix(3.55452,0,0,3.47889,336.586,133.854)"><g><path d="M86.044,0.208c-9.363,2.391 -19.728,6.394 -30.163,11.905c-30.27,15.989 -49.729,38.657 -43.427,50.588c3.39,6.418 13.548,8.431 26.92,6.432c-17.797,4.546 -31.971,3.265 -36.101,-4.554c-6.302,-11.931 13.157,-34.599 43.427,-50.588c13.988,-7.388 27.852,-12.065 39.344,-13.783Z" style="fill:#fff;"/><g transform="matrix(1,0,0,1,6.79058,1.73456)"><path d="M74.935,12.646c-6.208,1.585 -13.081,4.24 -19.999,7.894c-20.071,10.601 -32.973,25.631 -28.794,33.542c2.247,4.255 8.982,5.59 17.849,4.265c-11.801,3.013 -21.199,2.164 -23.937,-3.02c-4.179,-7.911 8.724,-22.941 28.794,-33.542c9.275,-4.899 18.468,-8 26.087,-9.139Z" style="fill:#fff;"/></g><g transform="matrix(-0.999995,0.00319639,-0.00319639,-0.999995,92.8352,109.784)"><path d="M86.044,0.208c-9.363,2.391 -19.728,6.394 -30.163,11.905c-30.27,15.989 -49.729,38.657 -43.427,50.588c3.39,6.418 13.548,8.431 26.92,6.432c-17.797,4.546 -31.971,3.265 -36.101,-4.554c-6.302,-11.931 13.157,-34.599 43.427,-50.588c13.988,-7.388 27.852,-12.065 39.344,-13.783Z" style="fill:#fff;"/></g><g transform="matrix(-0.999995,0.00319639,-0.00319639,-0.999995,86.0446,108.05)"><path d="M74.935,12.646c-6.208,1.585 -13.081,4.24 -19.999,7.894c-20.071,10.601 -32.973,25.631 -28.794,33.542c2.247,4.255 8.982,5.59 17.849,4.265c-11.801,3.013 -21.199,2.164 -23.937,-3.02c-4.179,-7.911 8.724,-22.941 28.794,-33.542c9.275,-4.899 18.468,-8 26.087,-9.139Z" style="fill:#fff;"/></g></g></g></g></g></svg>