<?xml version="1.0" encoding="UTF-8" standalone="no"?><!DOCTYPE svg PUBLIC "-//W3C//DTD SVG 1.1//EN" "http://www.w3.org/Graphics/SVG/1.1/DTD/svg11.dtd"><svg width="100%" height="100%" viewBox="0 0 3016 3016" version="1.1" xmlns="http://www.w3.org/2000/svg" xmlns:xlink="http://www.w3.org/1999/xlink" xml:space="preserve" xmlns:serif="http://www.serif.com/" style="fill-rule:evenodd;clip-rule:evenodd;stroke-linejoin:round;stroke-miterlimit:2;"><g transform="matrix(5.55556,0,0,5.55556,-764.673,-108.741)"><g><path d="M458.483,557.842c-16.045,2.972 -32.568,4.517 -49.449,4.517c-149.786,-0 -271.393,-121.607 -271.393,-271.393c0,-149.786 121.607,-271.393 271.393,-271.393c16.881,0 33.404,1.545 49.449,4.517l-49.449,0l-0,87.892c-98.784,0 -178.984,80.2 -178.984,178.984c0,98.784 80.2,178.984 178.984,178.984l-0,87.892l49.449,-0Z"/><path d="M643.162,153.748c23.69,40.277 37.265,87.175 37.265,137.218c-0,50.044 -13.575,96.942 -37.265,137.219l-0,-274.437Z"/><g transform="matrix(4.2027,0,0,9.58108,-1210.79,-241.348)"><path d="M385.425,36.878c23.505,-0 42.588,8.371 42.588,18.681c0,10.31 -19.083,18.681 -42.588,18.681l0,-37.362Z"/></g><g transform="matrix(4.2027,0,0,9.58108,-1210.79,-241.348)"><path d="M397.191,27.704c18.72,1.513 34.624,6.574 43.943,13.533l0,28.644c-9.317,6.958 -25.22,12.019 -43.943,13.532l-11.766,0l0,-9.173c23.505,-0 42.588,-8.371 42.588,-18.681c0,-10.31 -19.083,-18.681 -42.588,-18.681l0,-9.174l11.766,0Z"/></g></g></g></svg>