<?xml version="1.0" encoding="UTF-8" standalone="no"?><!DOCTYPE svg PUBLIC "-//W3C//DTD SVG 1.1//EN" "http://www.w3.org/Graphics/SVG/1.1/DTD/svg11.dtd"><svg width="100%" height="100%" viewBox="0 0 17359 17359" version="1.1" xmlns="http://www.w3.org/2000/svg" xmlns:xlink="http://www.w3.org/1999/xlink" xml:space="preserve" xmlns:serif="http://www.serif.com/" style="fill-rule:evenodd;clip-rule:evenodd;stroke-linejoin:round;stroke-miterlimit:2;"><g transform="matrix(5.55556,0,0,5.55556,-3993.61,-581.728)"><path d="M2281.14,104.711c862.251,0 1562.29,700.038 1562.29,1562.29c0,862.251 -700.038,1562.29 -1562.29,1562.29c-862.251,-0 -1562.29,-700.038 -1562.29,-1562.29c0,-862.251 700.038,-1562.29 1562.29,-1562.29Zm0,532.979c568.092,0 1029.31,461.219 1029.31,1029.31c-0,568.091 -461.218,1029.31 -1029.31,1029.31c-568.091,-0 -1029.31,-461.219 -1029.31,-1029.31c-0,-568.091 461.218,-1029.31 1029.31,-1029.31Z" style="fill:#e1e1e1;"/></g></svg>